%TF.GenerationSoftware,KiCad,Pcbnew,10.0.2*%
%TF.CreationDate,2026-05-24T00:26:29-04:00*%
%TF.ProjectId,pathfinder,70617468-6669-46e6-9465-722e6b696361,rev?*%
%TF.SameCoordinates,Original*%
%TF.FileFunction,Copper,L1,Top*%
%TF.FilePolarity,Positive*%
%FSLAX46Y46*%
G04 Gerber Fmt 4.6, Leading zero omitted, Abs format (unit mm)*
G04 Created by KiCad (PCBNEW 10.0.2) date 2026-05-24 00:26:29*
%MOMM*%
%LPD*%
G01*
G04 APERTURE LIST*
G04 Aperture macros list*
%AMRoundRect*
0 Rectangle with rounded corners*
0 $1 Rounding radius*
0 $2 $3 $4 $5 $6 $7 $8 $9 X,Y pos of 4 corners*
0 Add a 4 corners polygon primitive as box body*
4,1,4,$2,$3,$4,$5,$6,$7,$8,$9,$2,$3,0*
0 Add four circle primitives for the rounded corners*
1,1,$1+$1,$2,$3*
1,1,$1+$1,$4,$5*
1,1,$1+$1,$6,$7*
1,1,$1+$1,$8,$9*
0 Add four rect primitives between the rounded corners*
20,1,$1+$1,$2,$3,$4,$5,0*
20,1,$1+$1,$4,$5,$6,$7,0*
20,1,$1+$1,$6,$7,$8,$9,0*
20,1,$1+$1,$8,$9,$2,$3,0*%
G04 Aperture macros list end*
%TA.AperFunction,SMDPad,CuDef*%
%ADD10RoundRect,0.152400X0.609600X-1.063600X0.609600X1.063600X-0.609600X1.063600X-0.609600X-1.063600X0*%
%TD*%
%TA.AperFunction,ComponentPad*%
%ADD11C,1.524000*%
%TD*%
%TA.AperFunction,SMDPad,CuDef*%
%ADD12RoundRect,0.152400X-0.609600X1.063600X-0.609600X-1.063600X0.609600X-1.063600X0.609600X1.063600X0*%
%TD*%
%TA.AperFunction,ComponentPad*%
%ADD13C,2.200000*%
%TD*%
%TA.AperFunction,ComponentPad*%
%ADD14C,1.400000*%
%TD*%
%TA.AperFunction,ComponentPad*%
%ADD15C,1.815000*%
%TD*%
%TA.AperFunction,ComponentPad*%
%ADD16R,1.815000X1.815000*%
%TD*%
%TA.AperFunction,Conductor*%
%ADD17C,0.200000*%
%TD*%
G04 APERTURE END LIST*
D10*
%TO.P,U1,1,P26_A0_D0_1*%
%TO.N,/button1*%
X158351500Y-73045000D03*
D11*
X158351500Y-73880000D03*
D10*
%TO.P,U1,2,P27_A1_D1_2*%
%TO.N,/button2*%
X155811500Y-73045000D03*
D11*
X155811500Y-73880000D03*
D10*
%TO.P,U1,3,P28_A2_D2_3*%
%TO.N,/button3*%
X153271500Y-73045000D03*
D11*
X153271500Y-73880000D03*
D10*
%TO.P,U1,4,P29_A3_D3_4*%
%TO.N,/LED1*%
X150731500Y-73045000D03*
D11*
X150731500Y-73880000D03*
D10*
%TO.P,U1,5,P6_SDA_D4_5*%
%TO.N,/LED2*%
X148191500Y-73045000D03*
D11*
X148191500Y-73880000D03*
D10*
%TO.P,U1,6,P7_SCL_D5_6*%
%TO.N,/LED3*%
X145651500Y-73045000D03*
D11*
X145651500Y-73880000D03*
D10*
%TO.P,U1,7,P0_D6_TX_7*%
%TO.N,/LED4*%
X143111500Y-73045000D03*
D11*
X143111500Y-73880000D03*
%TO.P,U1,8,P1_D7_RX_8*%
%TO.N,/LED5*%
X143111500Y-89120000D03*
D12*
X143111500Y-89955000D03*
D11*
%TO.P,U1,9,P2_D8_SCK_9*%
%TO.N,/button4*%
X145651500Y-89120000D03*
D12*
X145651500Y-89955000D03*
D11*
%TO.P,U1,10,P4_D9_MISO_10*%
%TO.N,/button5*%
X148191500Y-89120000D03*
D12*
X148191500Y-89955000D03*
D11*
%TO.P,U1,11,P3_D10_MOSI_11*%
X150731500Y-89120000D03*
D12*
X150731500Y-89955000D03*
D11*
%TO.P,U1,12,3V3_12*%
%TO.N,unconnected-(U1-3V3-Pad12)*%
X153271500Y-89120000D03*
D12*
X153271500Y-89955000D03*
D11*
%TO.P,U1,13,GND_13*%
%TO.N,GND*%
X155811500Y-89120000D03*
D12*
X155811500Y-89955000D03*
D11*
%TO.P,U1,14,VBUS_14*%
%TO.N,unconnected-(U1-VBUS-Pad14)*%
X158351500Y-89120000D03*
D12*
X158351500Y-89955000D03*
%TD*%
D13*
%TO.P,SW5,1,1_1*%
%TO.N,/button5*%
X171120000Y-100420000D03*
%TO.P,SW5,2,2_2*%
%TO.N,GND*%
X164770000Y-102960000D03*
%TD*%
D14*
%TO.P,R1,1*%
%TO.N,Net-(D1-PadA)*%
X157960000Y-43500000D03*
%TO.P,R1,2*%
%TO.N,/LED1*%
X163040000Y-43500000D03*
%TD*%
D13*
%TO.P,SW1,1,1_1*%
%TO.N,/button1*%
X170620000Y-53920000D03*
%TO.P,SW1,2,2_2*%
%TO.N,GND*%
X164270000Y-56460000D03*
%TD*%
D15*
%TO.P,D3,A*%
%TO.N,Net-(D3-PadA)*%
X113000000Y-82500000D03*
D16*
%TO.P,D3,C*%
%TO.N,GND*%
X110460000Y-82500000D03*
%TD*%
D14*
%TO.P,R5,1*%
%TO.N,Net-(D5-PadA)*%
X162500000Y-123540000D03*
%TO.P,R5,2*%
%TO.N,/LED5*%
X162500000Y-118460000D03*
%TD*%
D15*
%TO.P,D2,A*%
%TO.N,Net-(D2-PadA)*%
X135500000Y-44000000D03*
D16*
%TO.P,D2,C*%
%TO.N,GND*%
X132960000Y-44000000D03*
%TD*%
D13*
%TO.P,SW3,1,1_1*%
%TO.N,/button3*%
X130540000Y-77920000D03*
%TO.P,SW3,2,2_2*%
%TO.N,GND*%
X124190000Y-80460000D03*
%TD*%
D15*
%TO.P,D1,A*%
%TO.N,Net-(D1-PadA)*%
X170500000Y-43000000D03*
D16*
%TO.P,D1,C*%
%TO.N,GND*%
X167960000Y-43000000D03*
%TD*%
D13*
%TO.P,SW2,1,1_1*%
%TO.N,/button2*%
X136540000Y-53920000D03*
%TO.P,SW2,2,2_2*%
%TO.N,GND*%
X130190000Y-56460000D03*
%TD*%
%TO.P,SW4,1,1_1*%
%TO.N,/button4*%
X138540000Y-100420000D03*
%TO.P,SW4,2,2_2*%
%TO.N,GND*%
X132190000Y-102960000D03*
%TD*%
D14*
%TO.P,R3,1*%
%TO.N,Net-(D3-PadA)*%
X112000000Y-93080000D03*
%TO.P,R3,2*%
%TO.N,/LED3*%
X112000000Y-88000000D03*
%TD*%
%TO.P,R2,1*%
%TO.N,Net-(D2-PadA)*%
X127000000Y-46580000D03*
%TO.P,R2,2*%
%TO.N,/LED2*%
X127000000Y-41500000D03*
%TD*%
%TO.P,R4,1*%
%TO.N,Net-(D4-PadA)*%
X129080000Y-121000000D03*
%TO.P,R4,2*%
%TO.N,/LED4*%
X124000000Y-121000000D03*
%TD*%
D15*
%TO.P,D4,A*%
%TO.N,Net-(D4-PadA)*%
X137500000Y-122000000D03*
D16*
%TO.P,D4,C*%
%TO.N,GND*%
X134960000Y-122000000D03*
%TD*%
D15*
%TO.P,D5,A*%
%TO.N,Net-(D5-PadA)*%
X170770000Y-122000000D03*
D16*
%TO.P,D5,C*%
%TO.N,GND*%
X168230000Y-122000000D03*
%TD*%
%TO.N,/button1*%
D17*
X170620000Y-59880000D02*
X158351500Y-72148500D01*
X158351500Y-72148500D02*
X158351500Y-73880000D01*
X170620000Y-53920000D02*
X170620000Y-59880000D01*
%TO.N,/button2*%
X155811500Y-71245815D02*
X155811500Y-73045000D01*
X136540000Y-53920000D02*
X138485685Y-53920000D01*
X138485685Y-53920000D02*
X155811500Y-71245815D01*
%TO.N,/button3*%
X154000000Y-70000000D02*
X154000000Y-71000000D01*
X130540000Y-77920000D02*
X130540000Y-75460000D01*
X153271500Y-71728500D02*
X153271500Y-73880000D01*
X130540000Y-75460000D02*
X136000000Y-70000000D01*
X154000000Y-71000000D02*
X153271500Y-71728500D01*
X136000000Y-70000000D02*
X154000000Y-70000000D01*
%TO.N,/button4*%
X145651500Y-93308500D02*
X145651500Y-89120000D01*
X138540000Y-100420000D02*
X145651500Y-93308500D01*
%TO.N,GND*%
X164770000Y-102960000D02*
X155811500Y-94001500D01*
X132190000Y-90513402D02*
X132190000Y-102960000D01*
X124000000Y-82323402D02*
X132190000Y-90513402D01*
X124190000Y-80810000D02*
X124000000Y-81000000D01*
X134960000Y-122000000D02*
X132190000Y-119230000D01*
X110460000Y-54040000D02*
X125000000Y-39500000D01*
X110000000Y-82500000D02*
X109500000Y-82000000D01*
X164770000Y-118540000D02*
X164770000Y-102960000D01*
X155811500Y-109581500D02*
X155811500Y-89955000D01*
X168230000Y-122000000D02*
X164770000Y-118540000D01*
X128460000Y-39500000D02*
X132960000Y-44000000D01*
X132960000Y-44000000D02*
X134460000Y-42500000D01*
X125000000Y-39500000D02*
X128460000Y-39500000D01*
X124000000Y-81000000D02*
X124000000Y-82323402D01*
X155811500Y-94001500D02*
X155811500Y-89120000D01*
X109500000Y-82000000D02*
X111040000Y-80460000D01*
X132190000Y-119230000D02*
X132190000Y-102960000D01*
X134960000Y-122000000D02*
X135000000Y-122000000D01*
X110460000Y-82500000D02*
X110000000Y-82500000D01*
X110460000Y-82500000D02*
X110460000Y-97500000D01*
X110460000Y-82500000D02*
X110460000Y-54040000D01*
X134460000Y-42500000D02*
X167460000Y-42500000D01*
X111040000Y-80460000D02*
X124190000Y-80460000D01*
X110460000Y-97500000D02*
X134960000Y-122000000D01*
X168230000Y-122000000D02*
X155811500Y-109581500D01*
X124190000Y-80460000D02*
X124190000Y-80810000D01*
X167460000Y-42500000D02*
X167960000Y-43000000D01*
%TO.N,Net-(D1-PadA)*%
X158960000Y-44500000D02*
X157960000Y-43500000D01*
X169000000Y-44500000D02*
X158960000Y-44500000D01*
X170500000Y-43000000D02*
X169000000Y-44500000D01*
%TO.N,Net-(D3-PadA)*%
X113000000Y-82500000D02*
X113000000Y-92080000D01*
X113000000Y-92080000D02*
X112000000Y-93080000D01*
%TO.N,Net-(D5-PadA)*%
X170770000Y-122000000D02*
X169230000Y-123540000D01*
X169230000Y-123540000D02*
X162500000Y-123540000D01*
%TO.N,Net-(D2-PadA)*%
X132920000Y-46580000D02*
X127000000Y-46580000D01*
X135500000Y-44000000D02*
X132920000Y-46580000D01*
%TO.N,Net-(D4-PadA)*%
X136792500Y-123207500D02*
X131287500Y-123207500D01*
X131287500Y-123207500D02*
X129080000Y-121000000D01*
X137500000Y-122500000D02*
X136792500Y-123207500D01*
X137500000Y-122000000D02*
X137500000Y-122500000D01*
%TD*%
M02*
