%TF.GenerationSoftware,KiCad,Pcbnew,10.0.2*%
%TF.CreationDate,2026-05-24T00:26:29-04:00*%
%TF.ProjectId,pathfinder,70617468-6669-46e6-9465-722e6b696361,rev?*%
%TF.SameCoordinates,Original*%
%TF.FileFunction,Copper,L2,Bot*%
%TF.FilePolarity,Positive*%
%FSLAX46Y46*%
G04 Gerber Fmt 4.6, Leading zero omitted, Abs format (unit mm)*
G04 Created by KiCad (PCBNEW 10.0.2) date 2026-05-24 00:26:29*
%MOMM*%
%LPD*%
G01*
G04 APERTURE LIST*
%TA.AperFunction,ComponentPad*%
%ADD10C,1.524000*%
%TD*%
%TA.AperFunction,ComponentPad*%
%ADD11C,2.200000*%
%TD*%
%TA.AperFunction,ComponentPad*%
%ADD12C,1.400000*%
%TD*%
%TA.AperFunction,ComponentPad*%
%ADD13C,1.815000*%
%TD*%
%TA.AperFunction,ComponentPad*%
%ADD14R,1.815000X1.815000*%
%TD*%
%TA.AperFunction,Conductor*%
%ADD15C,0.200000*%
%TD*%
G04 APERTURE END LIST*
D10*
%TO.P,U1,1,P26_A0_D0_1*%
%TO.N,/button1*%
X158351500Y-73880000D03*
%TO.P,U1,2,P27_A1_D1_2*%
%TO.N,/button2*%
X155811500Y-73880000D03*
%TO.P,U1,3,P28_A2_D2_3*%
%TO.N,/button3*%
X153271500Y-73880000D03*
%TO.P,U1,4,P29_A3_D3_4*%
%TO.N,/LED1*%
X150731500Y-73880000D03*
%TO.P,U1,5,P6_SDA_D4_5*%
%TO.N,/LED2*%
X148191500Y-73880000D03*
%TO.P,U1,6,P7_SCL_D5_6*%
%TO.N,/LED3*%
X145651500Y-73880000D03*
%TO.P,U1,7,P0_D6_TX_7*%
%TO.N,/LED4*%
X143111500Y-73880000D03*
%TO.P,U1,8,P1_D7_RX_8*%
%TO.N,/LED5*%
X143111500Y-89120000D03*
%TO.P,U1,9,P2_D8_SCK_9*%
%TO.N,/button4*%
X145651500Y-89120000D03*
%TO.P,U1,10,P4_D9_MISO_10*%
%TO.N,/button5*%
X148191500Y-89120000D03*
%TO.P,U1,11,P3_D10_MOSI_11*%
X150731500Y-89120000D03*
%TO.P,U1,12,3V3_12*%
%TO.N,unconnected-(U1-3V3-Pad12)*%
X153271500Y-89120000D03*
%TO.P,U1,13,GND_13*%
%TO.N,GND*%
X155811500Y-89120000D03*
%TO.P,U1,14,VBUS_14*%
%TO.N,unconnected-(U1-VBUS-Pad14)*%
X158351500Y-89120000D03*
%TD*%
D11*
%TO.P,SW5,1,1_1*%
%TO.N,/button5*%
X171120000Y-100420000D03*
%TO.P,SW5,2,2_2*%
%TO.N,GND*%
X164770000Y-102960000D03*
%TD*%
D12*
%TO.P,R1,1*%
%TO.N,Net-(D1-PadA)*%
X157960000Y-43500000D03*
%TO.P,R1,2*%
%TO.N,/LED1*%
X163040000Y-43500000D03*
%TD*%
D11*
%TO.P,SW1,1,1_1*%
%TO.N,/button1*%
X170620000Y-53920000D03*
%TO.P,SW1,2,2_2*%
%TO.N,GND*%
X164270000Y-56460000D03*
%TD*%
D13*
%TO.P,D3,A*%
%TO.N,Net-(D3-PadA)*%
X113000000Y-82500000D03*
D14*
%TO.P,D3,C*%
%TO.N,GND*%
X110460000Y-82500000D03*
%TD*%
D12*
%TO.P,R5,1*%
%TO.N,Net-(D5-PadA)*%
X162500000Y-123540000D03*
%TO.P,R5,2*%
%TO.N,/LED5*%
X162500000Y-118460000D03*
%TD*%
D13*
%TO.P,D2,A*%
%TO.N,Net-(D2-PadA)*%
X135500000Y-44000000D03*
D14*
%TO.P,D2,C*%
%TO.N,GND*%
X132960000Y-44000000D03*
%TD*%
D11*
%TO.P,SW3,1,1_1*%
%TO.N,/button3*%
X130540000Y-77920000D03*
%TO.P,SW3,2,2_2*%
%TO.N,GND*%
X124190000Y-80460000D03*
%TD*%
D13*
%TO.P,D1,A*%
%TO.N,Net-(D1-PadA)*%
X170500000Y-43000000D03*
D14*
%TO.P,D1,C*%
%TO.N,GND*%
X167960000Y-43000000D03*
%TD*%
D11*
%TO.P,SW2,1,1_1*%
%TO.N,/button2*%
X136540000Y-53920000D03*
%TO.P,SW2,2,2_2*%
%TO.N,GND*%
X130190000Y-56460000D03*
%TD*%
%TO.P,SW4,1,1_1*%
%TO.N,/button4*%
X138540000Y-100420000D03*
%TO.P,SW4,2,2_2*%
%TO.N,GND*%
X132190000Y-102960000D03*
%TD*%
D12*
%TO.P,R3,1*%
%TO.N,Net-(D3-PadA)*%
X112000000Y-93080000D03*
%TO.P,R3,2*%
%TO.N,/LED3*%
X112000000Y-88000000D03*
%TD*%
%TO.P,R2,1*%
%TO.N,Net-(D2-PadA)*%
X127000000Y-46580000D03*
%TO.P,R2,2*%
%TO.N,/LED2*%
X127000000Y-41500000D03*
%TD*%
%TO.P,R4,1*%
%TO.N,Net-(D4-PadA)*%
X129080000Y-121000000D03*
%TO.P,R4,2*%
%TO.N,/LED4*%
X124000000Y-121000000D03*
%TD*%
D13*
%TO.P,D4,A*%
%TO.N,Net-(D4-PadA)*%
X137500000Y-122000000D03*
D14*
%TO.P,D4,C*%
%TO.N,GND*%
X134960000Y-122000000D03*
%TD*%
D13*
%TO.P,D5,A*%
%TO.N,Net-(D5-PadA)*%
X170770000Y-122000000D03*
D14*
%TO.P,D5,C*%
%TO.N,GND*%
X168230000Y-122000000D03*
%TD*%
%TO.N,/button5*%
D15*
X159491500Y-100420000D02*
X148191500Y-89120000D01*
X171120000Y-100420000D02*
X159491500Y-100420000D01*
%TD*%
M02*
