M48
; DRILL file KiCad 10.0.2 date 2026-05-24T00:26:35
; FORMAT={-:-/ absolute / metric / decimal}
; #@! TF.CreationDate,2026-05-24T00:26:35-04:00
; #@! TF.GenerationSoftware,Kicad,Pcbnew,10.0.2
; #@! TF.FileFunction,Plated,1,2,PTH
FMAT,2
METRIC
; #@! TA.AperFunction,Plated,PTH,ComponentDrill
T1C0.700
; #@! TA.AperFunction,Plated,PTH,ComponentDrill
T2C0.889
; #@! TA.AperFunction,Plated,PTH,ComponentDrill
T3C1.210
; #@! TA.AperFunction,Plated,PTH,ComponentDrill
T4C1.500
%
G90
G05
T1
X112.0Y-88.0
X112.0Y-93.08
X124.0Y-121.0
X127.0Y-41.5
X127.0Y-46.58
X129.08Y-121.0
X157.96Y-43.5
X162.5Y-118.46
X162.5Y-123.54
X163.04Y-43.5
T2
X143.112Y-73.88
X143.112Y-89.12
X145.651Y-73.88
X145.651Y-89.12
X148.191Y-73.88
X148.191Y-89.12
X150.731Y-73.88
X150.731Y-89.12
X153.272Y-73.88
X153.272Y-89.12
X155.811Y-73.88
X155.811Y-89.12
X158.351Y-73.88
X158.351Y-89.12
T3
X110.46Y-82.5
X113.0Y-82.5
X132.96Y-44.0
X134.96Y-122.0
X135.5Y-44.0
X137.5Y-122.0
X167.96Y-43.0
X168.23Y-122.0
X170.5Y-43.0
X170.77Y-122.0
T4
X124.19Y-80.46
X130.19Y-56.46
X130.54Y-77.92
X132.19Y-102.96
X136.54Y-53.92
X138.54Y-100.42
X164.27Y-56.46
X164.77Y-102.96
X170.62Y-53.92
X171.12Y-100.42
M30
